<?xml version="1.0" standalone="no"?>
<!DOCTYPE svg PUBLIC "-//W3C//DTD SVG 20010904//EN"
 "http://www.w3.org/TR/2001/REC-SVG-20010904/DTD/svg10.dtd">
<svg version="1.0" xmlns="http://www.w3.org/2000/svg"
 width="70.000000pt" height="70.000000pt" viewBox="0 0 386.000000 647.000000"
 preserveAspectRatio="xMidYMid meet">
<metadata>
Created by potrace 1.16, written by Peter Selinger 2001-2019
</metadata>
<g transform="translate(0.000000,647.000000) scale(0.100000,-0.100000)"
fill="#000000" stroke="none">
<path d="M1685 6326 c-241 -45 -395 -246 -312 -406 20 -37 35 -51 89 -78 35
-17 89 -37 119 -42 90 -17 351 -25 604 -20 l240 5 85 42 c47 23 96 53 109 67
51 54 46 180 -11 245 -50 57 -162 117 -283 151 -134 38 -515 59 -640 36z m211
-46 c16 -5 88 -16 159 -25 256 -30 327 -49 439 -116 68 -41 96 -82 96 -141 0
-55 -9 -64 -115 -111 l-80 -35 -310 -6 c-359 -7 -504 3 -580 38 -79 37 -95 57
-95 121 0 29 4 65 10 80 15 39 101 120 157 149 89 45 252 69 319 46z"/>
<path d="M1820 5650 c-107 -16 -211 -34 -230 -39 -19 -5 -72 -15 -117 -21 -46
-6 -102 -20 -125 -30 -24 -11 -51 -20 -60 -20 -10 0 -18 -4 -18 -8 0 -4 -23
-25 -50 -46 -174 -133 -325 -352 -263 -384 22 -11 98 -8 136 7 15 6 27 9 27 7
0 -2 -13 -29 -29 -61 -17 -33 -28 -62 -26 -66 3 -3 -2 -32 -10 -63 -40 -154
-39 -301 6 -520 31 -154 75 -245 165 -348 57 -64 83 -82 207 -147 129 -67 141
-74 150 -88 4 -7 15 -13 22 -13 8 0 15 -4 15 -8 0 -4 39 -13 86 -19 84 -12
131 -34 118 -55 -4 -5 2 -8 12 -7 26 4 84 -11 84 -20 0 -12 -71 -101 -211
-266 -48 -56 -94 -116 -103 -133 -9 -17 -24 -39 -34 -49 -31 -31 -92 -122 -92
-138 0 -8 -4 -15 -9 -15 -5 0 -12 -14 -16 -31 -4 -17 -18 -47 -31 -66 -13 -20
-24 -40 -24 -46 0 -5 -9 -7 -20 -4 -25 6 -36 -9 -20 -28 7 -8 10 -24 7 -35 -3
-12 1 -33 9 -48 8 -15 14 -32 14 -39 0 -31 67 -143 106 -178 21 -19 53 -72 48
-78 -4 -3 3 -21 15 -40 11 -19 21 -39 21 -45 0 -6 28 -60 63 -120 35 -59 71
-128 81 -153 16 -39 76 -167 113 -241 11 -23 11 -32 -1 -60 -16 -36 -135 -340
-156 -398 -11 -32 -10 -41 10 -85 48 -105 90 -352 90 -530 0 -153 -22 -244
-90 -377 -22 -43 -40 -86 -40 -96 0 -24 -28 -49 -59 -54 -34 -4 -35 -18 -3
-56 l27 -32 100 11 c55 6 121 13 148 16 28 3 47 10 47 17 0 16 -72 38 -94 30
-20 -8 -126 25 -126 39 0 6 8 20 18 31 32 36 94 184 94 224 0 20 7 59 14 86
13 47 11 277 -2 316 -3 8 -7 56 -9 106 -3 69 -10 106 -29 154 -15 35 -23 67
-19 71 5 3 53 -19 108 -50 133 -75 156 -91 153 -107 -2 -8 34 -49 80 -92 l83
-77 4 -91 c3 -74 0 -97 -14 -120 -10 -16 -36 -76 -59 -135 -30 -78 -42 -124
-46 -180 -3 -40 -12 -92 -20 -114 -25 -66 -22 -73 37 -90 29 -8 64 -14 77 -14
14 1 34 -2 44 -6 16 -7 18 -5 13 8 -5 14 3 17 56 19 49 2 62 6 65 21 3 12 -3
17 -20 17 -13 0 -31 9 -41 20 -13 16 -29 20 -81 20 -41 0 -68 5 -75 13 -12 16
-2 60 26 107 14 25 15 32 4 39 -14 9 -12 22 16 99 11 29 19 39 24 30 10 -15
41 54 59 132 7 30 16 66 21 80 11 31 -2 82 -34 124 -13 17 -29 46 -36 63 -7
18 -17 30 -22 28 -4 -3 -11 1 -16 9 -30 53 -160 177 -248 236 -113 77 -195
146 -195 166 0 18 38 90 55 104 8 6 11 18 9 25 -3 7 12 58 34 112 22 54 53
143 70 198 50 167 125 575 148 815 l7 75 13 -45 c7 -25 28 -104 47 -176 50
-185 104 -279 211 -366 l39 -32 -8 55 c-4 30 -7 71 -6 92 1 21 -3 56 -9 77 -5
22 -15 58 -20 80 -7 26 -15 38 -22 34 -7 -5 -8 -2 -3 5 4 7 0 31 -8 54 -8 23
-20 64 -27 90 -9 35 -16 45 -22 35 -7 -10 -8 -9 -4 4 4 15 0 44 -30 181 -6 27
-7 27 -30 -20 -13 -27 -24 -42 -24 -35 0 7 5 23 12 35 27 49 25 85 -11 202
-17 55 -31 117 -31 137 0 20 -5 49 -10 64 -20 52 -49 197 -37 185 23 -23 107
-146 122 -178 8 -18 25 -38 37 -44 13 -6 33 -21 45 -32 16 -14 30 -18 50 -13
15 3 39 9 53 12 13 3 33 14 43 25 10 10 24 19 31 19 8 0 26 17 42 37 38 50
176 183 190 183 6 0 21 11 34 25 30 32 38 31 46 -2 7 -27 46 -68 74 -78 8 -3
23 -18 32 -35 9 -16 23 -30 31 -30 8 0 20 -7 27 -15 20 -24 27 -18 40 35 7 28
18 50 24 50 15 0 56 42 56 57 0 5 -10 21 -21 34 -12 13 -28 34 -37 47 -8 13
-27 29 -42 37 -35 18 -126 16 -165 -3 -32 -16 -109 -78 -193 -155 -37 -35 -59
-48 -73 -44 -12 3 -31 -4 -48 -19 -16 -13 -36 -24 -44 -24 -17 0 -74 -52 -98
-89 l-15 -24 -57 67 c-31 37 -57 72 -57 79 0 11 -17 39 -102 164 -54 80 -62
122 -27 151 11 9 25 27 29 39 7 16 23 24 67 33 32 6 65 16 74 20 9 5 34 12 55
15 22 4 56 13 77 21 20 8 53 14 73 14 19 0 33 3 30 8 -4 7 113 73 255 144 58
28 131 100 175 170 44 69 85 213 92 317 13 190 6 289 -27 410 -17 62 -39 127
-49 145 -9 18 -26 50 -37 72 -11 21 -23 41 -27 42 -5 2 -8 12 -8 22 0 18 -57
112 -71 118 -4 2 -20 16 -37 31 -16 16 -33 30 -38 32 -5 2 -28 28 -52 58 -53
67 -89 95 -172 133 -36 16 -80 36 -99 45 -52 24 -156 43 -261 48 -73 3 -140
-2 -290 -25z m-286 -643 c34 -24 68 -96 54 -114 -21 -26 -172 -9 -194 22 -13
18 -6 56 17 93 22 35 71 35 123 -1z m1101 -51 c53 -32 79 -61 71 -82 -6 -14
-18 -16 -86 -11 -50 3 -90 12 -110 24 -28 16 -31 21 -25 53 4 19 12 38 18 43
19 12 89 -2 132 -27z m5 -136 c11 -11 20 -24 20 -29 0 -5 3 -16 6 -25 4 -10
-6 -21 -33 -35 l-40 -20 2 52 c2 35 1 39 -2 12 -5 -47 -18 -64 -35 -47 -7 7
-17 12 -22 12 -6 0 1 -10 16 -23 l27 -22 -30 -34 c-24 -26 -33 -31 -40 -20 -4
8 -6 25 -3 39 8 38 56 144 68 152 19 13 45 9 66 -12z m-598 -97 c0 -10 2 -58
4 -108 3 -103 8 -142 17 -152 4 -3 7 -13 7 -22 -1 -23 -30 17 -30 41 0 10 -4
18 -10 18 -14 0 -13 -15 5 -57 8 -19 15 -44 15 -54 0 -16 -4 -17 -26 -9 -33
13 -54 13 -54 0 0 -5 9 -10 21 -10 11 0 17 -4 14 -10 -3 -5 -18 -10 -32 -10
-23 0 -89 -18 -103 -28 -2 -2 2 -7 9 -11 10 -7 8 -11 -9 -16 -42 -13 -43 9 -6
103 20 49 49 134 66 189 45 153 45 153 80 153 21 0 30 -5 32 -17z m-67 -1451
c11 -60 21 -91 29 -89 6 3 10 10 8 16 -1 8 2 9 9 5 9 -5 10 -2 5 12 -6 16 -5
17 6 6 11 -11 8 -18 -15 -38 l-29 -25 13 -163 c13 -171 5 -335 -25 -491 -8
-38 -23 -122 -35 -185 -29 -162 -73 -332 -83 -322 -4 4 -3 22 2 39 9 24 7 40
-10 84 -57 148 -100 268 -100 282 0 9 -43 80 -95 158 -52 77 -95 147 -95 153
0 7 -16 27 -35 46 -19 19 -44 53 -55 75 -39 80 -14 206 47 239 15 9 37 28 48
42 11 14 33 41 49 60 15 19 26 40 23 48 -3 7 14 32 39 57 24 24 44 51 44 60 0
9 7 22 16 30 23 19 89 121 89 139 0 8 5 15 11 15 6 0 18 8 28 18 10 9 26 17
36 17 10 0 22 6 27 13 4 7 13 -36 19 -98 7 -60 20 -152 29 -203z"/>
</g>
</svg>
